<?xml version="1.0" encoding="UTF-8" standalone="no"?>
<!-- Created with Inkscape (http://www.inkscape.org/) -->

<svg
   xmlns:osb="http://www.openswatchbook.org/uri/2009/osb"
   xmlns:dc="http://purl.org/dc/elements/1.1/"
   xmlns:cc="http://creativecommons.org/ns#"
   xmlns:rdf="http://www.w3.org/1999/02/22-rdf-syntax-ns#"
   xmlns:svg="http://www.w3.org/2000/svg"
   xmlns="http://www.w3.org/2000/svg"
   xmlns:sodipodi="http://sodipodi.sourceforge.net/DTD/sodipodi-0.dtd"
   xmlns:inkscape="http://www.inkscape.org/namespaces/inkscape"
   width="131.22583"
   height="136.23738"
   id="svg2"
   version="1.1"
   inkscape:version="0.48.4 r9939"
   sodipodi:docname="HMS Logo.svg">
  <defs
     id="defs4">
    <linearGradient
       id="linearGradient5316"
       osb:paint="solid">
      <stop
         style="stop-color:#cbaef8;stop-opacity:1;"
         offset="0"
         id="stop5318" />
    </linearGradient>
  </defs>
  <sodipodi:namedview
     id="base"
     pagecolor="#ffffff"
     bordercolor="#666666"
     borderopacity="1.0"
     inkscape:pageopacity="0.0"
     inkscape:pageshadow="2"
     inkscape:zoom="1.979899"
     inkscape:cx="174.85788"
     inkscape:cy="62.570305"
     inkscape:document-units="px"
     inkscape:current-layer="layer1"
     showgrid="false"
     showguides="false"
     inkscape:window-width="1468"
     inkscape:window-height="1120"
     inkscape:window-x="3452"
     inkscape:window-y="124"
     inkscape:window-maximized="0"
     fit-margin-top="0"
     fit-margin-left="0"
     fit-margin-right="0"
     fit-margin-bottom="0">
    <inkscape:grid
       type="xygrid"
       id="grid5340"
       empspacing="5"
       visible="true"
       enabled="true"
       snapvisiblegridlinesonly="true"
       originx="-149.87523px"
       originy="-780.29312px" />
  </sodipodi:namedview>
  <metadata
     id="metadata7">
    <rdf:RDF>
      <cc:Work
         rdf:about="">
        <dc:format>image/svg+xml</dc:format>
        <dc:type
           rdf:resource="http://purl.org/dc/dcmitype/StillImage" />
        <dc:title></dc:title>
      </cc:Work>
    </rdf:RDF>
  </metadata>
  <g
     inkscape:groupmode="layer"
     id="layer4"
     inkscape:label="Background"
     transform="translate(-149.87523,-135.83167)" />
  <g
     inkscape:groupmode="layer"
     id="layer2"
     inkscape:label="Layer"
     style="opacity:0.81999972;display:inline"
     transform="translate(-149.87523,-135.83167)">
    <path
       sodipodi:type="arc"
       style="fill:#2378a7;fill-opacity:1;fill-rule:evenodd;stroke:none;display:inline"
       id="path2985-9-8-9-8"
       sodipodi:cx="288.57144"
       sodipodi:cy="134.50504"
       sodipodi:rx="31.428572"
       sodipodi:ry="31.428572"
       d="m 320.00001,134.50504 c 0,17.35752 -14.07105,31.42857 -31.42857,31.42857 -17.35752,0 -31.42857,-14.07105 -31.42857,-31.42857 0,-17.35753 14.07105,-31.42858 31.42857,-31.42858 17.35752,0 31.42857,14.07105 31.42857,31.42858 z"
       transform="matrix(-0.32789637,-0.33402848,0.32320621,-0.33887567,235.64057,312.27039)" />
    <path
       sodipodi:type="arc"
       style="fill:#7d7ac1;fill-opacity:1;fill-rule:evenodd;stroke:none;display:inline"
       id="path2985-9-8-9-8-6"
       sodipodi:cx="288.57144"
       sodipodi:cy="134.50504"
       sodipodi:rx="31.428572"
       sodipodi:ry="31.428572"
       d="m 320.00001,134.50504 c 0,17.35752 -14.07105,31.42857 -31.42857,31.42857 -17.35752,0 -31.42857,-14.07105 -31.42857,-31.42857 0,-17.35753 14.07105,-31.42858 31.42857,-31.42858 17.35752,0 31.42857,14.07105 31.42857,31.42858 z"
       transform="matrix(-0.32789637,-0.33402848,0.32320621,-0.33887567,298.12597,312.27039)" />
    <path
       sodipodi:type="arc"
       style="fill:#5566bf;fill-opacity:1;fill-rule:evenodd;stroke:none;display:inline"
       id="path2985-9-8-9-8-3"
       sodipodi:cx="288.57144"
       sodipodi:cy="134.50504"
       sodipodi:rx="31.428572"
       sodipodi:ry="31.428572"
       d="m 320.00001,134.50504 c 0,17.35752 -14.07105,31.42857 -31.42857,31.42857 -17.35752,0 -31.42857,-14.07105 -31.42857,-31.42857 0,-17.35753 14.07105,-31.42858 31.42857,-31.42858 17.35752,0 31.42857,14.07105 31.42857,31.42858 z"
       transform="matrix(-0.32789637,-0.33402848,0.32320621,-0.33887567,297.42965,377.95873)" />
    <path
       sodipodi:type="arc"
       style="fill:#4c3faa;fill-opacity:1;fill-rule:evenodd;stroke:none;display:inline"
       id="path2985-9-8-9-8-7"
       sodipodi:cx="288.57144"
       sodipodi:cy="134.50504"
       sodipodi:rx="31.428572"
       sodipodi:ry="31.428572"
       d="m 320.00001,134.50504 c 0,17.35752 -14.07105,31.42857 -31.42857,31.42857 -17.35752,0 -31.42857,-14.07105 -31.42857,-31.42857 0,-17.35753 14.07105,-31.42858 31.42857,-31.42858 17.35752,0 31.42857,14.07105 31.42857,31.42858 z"
       transform="matrix(-0.32789637,-0.33402848,0.32320621,-0.33887567,235.45738,377.95873)" />
  </g>
  <g
     inkscape:label="Layer 1"
     inkscape:groupmode="layer"
     id="layer1"
     style="display:inline"
     transform="translate(-149.87523,-135.83167)">
    <rect
       style="fill:#878fff;fill-opacity:1;fill-rule:evenodd;stroke:none"
       id="rect2987"
       width="37.077"
       height="10.273784"
       x="0.99697232"
       y="328.39856"
       transform="matrix(0.68852887,-0.72520894,0.68852887,0.72520894,0,0)" />
    <rect
       style="fill:#c8aef8;fill-opacity:1;fill-rule:evenodd;stroke:none"
       id="rect2987-2"
       width="37.077"
       height="10.273784"
       x="280.69254"
       y="-58.976807"
       transform="matrix(0.68852887,0.72520894,-0.68852887,0.72520894,0,0)" />
    <rect
       style="fill:#9154f8;fill-opacity:1;fill-rule:evenodd;stroke:none"
       id="rect2987-2-8"
       width="37.077"
       height="10.273784"
       x="274.62762"
       y="15.696976"
       transform="matrix(0.68852887,0.72520894,-0.68852887,0.72520894,0,0)" />
    <rect
       style="fill:#35c2df;fill-opacity:1;fill-rule:evenodd;stroke:none"
       id="rect2987-20"
       width="37.077"
       height="10.273784"
       x="-5.0679274"
       y="253.72479"
       transform="matrix(0.68852887,-0.72520894,0.68852887,0.72520894,0,0)" />
    <rect
       style="fill:#123374;fill-opacity:1;fill-rule:nonzero;stroke:none;display:inline"
       id="rect5493"
       width="64.9897"
       height="66.239502"
       x="-18.798567"
       y="263.79114"
       transform="matrix(0.69629882,-0.71775202,0.69629882,0.71775202,0,0)" />
  </g>
  <g
     inkscape:groupmode="layer"
     id="layer3"
     inkscape:label="BigBalls"
     style="display:inline"
     transform="translate(-149.87523,-135.83167)">
    <path
       sodipodi:type="arc"
       style="fill:#9154f8;fill-opacity:1;fill-rule:evenodd;stroke:none;display:inline"
       id="path2985-9"
       sodipodi:cx="288.57144"
       sodipodi:cy="134.50504"
       sodipodi:rx="31.428572"
       sodipodi:ry="31.428572"
       d="m 320.00001,134.50504 c 0,17.35752 -14.07105,31.42857 -31.42857,31.42857 -17.35752,0 -31.42857,-14.07105 -31.42857,-31.42857 0,-17.35753 14.07105,-31.42858 31.42857,-31.42858 17.35752,0 31.42857,14.07105 31.42857,31.42858 z"
       transform="matrix(0.73077229,0,0,0.7697028,5.130104,144.3495)" />
    <path
       sodipodi:type="arc"
       style="fill:#35c2df;fill-opacity:1;fill-rule:evenodd;stroke:none;display:inline"
       id="path2985-8"
       sodipodi:cx="288.57144"
       sodipodi:cy="134.50504"
       sodipodi:rx="31.428572"
       sodipodi:ry="31.428572"
       d="m 320.00001,134.50504 c 0,17.35752 -14.07105,31.42857 -31.42857,31.42857 -17.35752,0 -31.42857,-14.07105 -31.42857,-31.42857 0,-17.35753 14.07105,-31.42858 31.42857,-31.42858 17.35752,0 31.42857,14.07105 31.42857,31.42858 z"
       transform="matrix(0,-0.7697028,0.73077229,0,74.549803,424.91006)" />
    <path
       sodipodi:type="arc"
       style="fill:#878fff;fill-opacity:1;fill-rule:evenodd;stroke:none;display:inline"
       id="path2985-9-8"
       sodipodi:cx="288.57144"
       sodipodi:cy="134.50504"
       sodipodi:rx="31.428572"
       sodipodi:ry="31.428572"
       d="m 320.00001,134.50504 c 0,17.35752 -14.07105,31.42857 -31.42857,31.42857 -17.35752,0 -31.42857,-14.07105 -31.42857,-31.42857 0,-17.35753 14.07105,-31.42858 31.42857,-31.42858 17.35752,0 31.42857,14.07105 31.42857,31.42858 z"
       transform="matrix(0,-0.7697028,0.73077229,0,159.84137,424.91006)" />
    <path
       sodipodi:type="arc"
       style="fill:#c8aef8;fill-opacity:1;fill-rule:evenodd;stroke:none;display:inline"
       id="path2985-9-8-9"
       sodipodi:cx="288.57144"
       sodipodi:cy="134.50504"
       sodipodi:rx="31.428572"
       sodipodi:ry="31.428572"
       d="m 320.00001,134.50504 c 0,17.35752 -14.07105,31.42857 -31.42857,31.42857 -17.35752,0 -31.42857,-14.07105 -31.42857,-31.42857 0,-17.35753 14.07105,-31.42858 31.42857,-31.42858 17.35752,0 31.42857,14.07105 31.42857,31.42858 z"
       transform="matrix(0,-0.7697028,0.73077229,0,117.71756,382.13658)" />
  </g>
</svg>
